<svg id="Layer_1" data-name="Layer 1" xmlns="http://www.w3.org/2000/svg" viewBox="0 0 926.53 172.54"><defs><style>.cls-1{fill:#30c991;}.cls-2{fill:#06f;}</style></defs><title>OED_logo_colored</title><circle class="cls-1" cx="37.7" cy="86.42" r="37.7"/><path class="cls-2" d="M204.31,548.25H145.86A87.42,87.42,0,0,1,88,585.84l98.78-.08Z" transform="translate(-35.47 -413.3)"/><path class="cls-2" d="M267.24,413.3l-179.18.31a87.43,87.43,0,0,1,57.61,37.29l104.11-.14Z" transform="translate(-35.47 -413.3)"/><path class="cls-2" d="M218.82,517.13l17.59-37.72-78.21.12a87.53,87.53,0,0,1,.61,37.7Z" transform="translate(-35.47 -413.3)"/><path class="cls-2" d="M309.84,521.19a26.53,26.53,0,0,1-10.61-2.07,23.05,23.05,0,0,1-8.22-5.94,27.21,27.21,0,0,1-5.33-9.42,42.68,42.68,0,0,1,0-25.12A26,26,0,0,1,291,469.4a22.86,22.86,0,0,1,8.22-5.72,29.39,29.39,0,0,1,21.21,0,22.54,22.54,0,0,1,8.23,5.77,26.27,26.27,0,0,1,5.32,9.28,38.21,38.21,0,0,1,1.9,12.45,38.81,38.81,0,0,1-1.9,12.58,27.19,27.19,0,0,1-5.32,9.42,23.09,23.09,0,0,1-8.23,5.94A26.48,26.48,0,0,1,309.84,521.19Zm0-11.18a10.71,10.71,0,0,0,9.33-5.06q3.42-5.06,3.43-13.77t-3.43-13.46a11.41,11.41,0,0,0-18.66,0q-3.43,4.83-3.43,13.46T300.51,505A10.71,10.71,0,0,0,309.84,510Z" transform="translate(-35.47 -413.3)"/><path class="cls-2" d="M344.51,462.76H357.8l15,28.51,5.63,12.67h.35q-.44-4.57-1-10.21a106.64,106.64,0,0,1-.57-10.73V462.76h12.32v57.37H376.19l-15-28.6L355.6,479h-.36c.3,3.17.63,6.57,1,10.21a101.41,101.41,0,0,1,.57,10.55v20.33H344.51Z" transform="translate(-35.47 -413.3)"/><path class="cls-2" d="M400.83,462.76h35.9v10.91h-23V485.2H433.3V496H413.76v13.2h23.85v10.91H400.83Z" transform="translate(-35.47 -413.3)"/><path class="cls-2" d="M463,462.76h35.91v10.91h-23V485.2h19.54V496H475.89v13.2h23.85v10.91H463Z" transform="translate(-35.47 -413.3)"/><path class="cls-2" d="M509,462.76h16.19a39.42,39.42,0,0,1,11.88,1.67,23.7,23.7,0,0,1,9.06,5.15,22.52,22.52,0,0,1,5.81,8.84,36.15,36.15,0,0,1,2,12.76,36.91,36.91,0,0,1-2,12.85,23.74,23.74,0,0,1-5.72,9,23.5,23.5,0,0,1-8.84,5.32,35.17,35.17,0,0,1-11.49,1.76H509Zm15.4,46.9a21.57,21.57,0,0,0,6.69-1,12.28,12.28,0,0,0,5.1-3.12,14.63,14.63,0,0,0,3.3-5.68,27.55,27.55,0,0,0,1.19-8.71,26.86,26.86,0,0,0-1.19-8.58,13.82,13.82,0,0,0-3.3-5.54,12.06,12.06,0,0,0-5.1-2.95,23.61,23.61,0,0,0-6.69-.88h-2.47v36.43Z" transform="translate(-35.47 -413.3)"/><path class="cls-2" d="M559.93,491.8a34,34,0,0,1,2.24-12.72,28.22,28.22,0,0,1,6.08-9.46,25.85,25.85,0,0,1,9-5.9,29.88,29.88,0,0,1,11-2A22.6,22.6,0,0,1,598.69,464a27.6,27.6,0,0,1,7.26,5.19l-7.12,8a17.62,17.62,0,0,0-4.45-3.17,13.74,13.74,0,0,0-6-1.14,14.44,14.44,0,0,0-6.11,1.27,13.88,13.88,0,0,0-4.8,3.65,16.75,16.75,0,0,0-3.12,5.81,25.14,25.14,0,0,0-1.1,7.75q0,8.88,4,13.77t12.1,4.88a13.06,13.06,0,0,0,3.43-.44,6.83,6.83,0,0,0,2.73-1.32V498.4H586V487.84h20.94v26.4a25.76,25.76,0,0,1-8.09,4.93,29.58,29.58,0,0,1-11.09,2,30.82,30.82,0,0,1-10.87-1.89,25.11,25.11,0,0,1-8.84-5.59,25.57,25.57,0,0,1-5.94-9.2A34.57,34.57,0,0,1,559.93,491.8Z" transform="translate(-35.47 -413.3)"/><path class="cls-2" d="M616.6,462.76h35.9v10.91h-23V485.2h19.53V496H629.54v13.2h23.84v10.91H616.6Z" transform="translate(-35.47 -413.3)"/><path class="cls-2" d="M678.73,462.76h16.19a39.42,39.42,0,0,1,11.88,1.67,23.7,23.7,0,0,1,9.06,5.15,22.63,22.63,0,0,1,5.81,8.84,36.15,36.15,0,0,1,2,12.76,36.91,36.91,0,0,1-2,12.85,23.74,23.74,0,0,1-5.72,9,23.5,23.5,0,0,1-8.84,5.32,35.21,35.21,0,0,1-11.49,1.76H678.73Zm15.4,46.9a21.57,21.57,0,0,0,6.69-1,12.28,12.28,0,0,0,5.1-3.12,14.63,14.63,0,0,0,3.3-5.68,27.55,27.55,0,0,0,1.19-8.71,26.86,26.86,0,0,0-1.19-8.58,13.82,13.82,0,0,0-3.3-5.54,12.06,12.06,0,0,0-5.1-2.95,23.61,23.61,0,0,0-6.69-.88h-2.47v36.43Z" transform="translate(-35.47 -413.3)"/><path class="cls-2" d="M732.41,462.76h12.93v57.37H732.41Z" transform="translate(-35.47 -413.3)"/><path class="cls-2" d="M754,491.8a33.83,33.83,0,0,1,2.24-12.72,28.35,28.35,0,0,1,6.07-9.46,25.89,25.89,0,0,1,9-5.9,29.83,29.83,0,0,1,11-2A22.64,22.64,0,0,1,792.73,464a27.94,27.94,0,0,1,7.26,5.19l-7.13,8a17.76,17.76,0,0,0-4.44-3.17,13.8,13.8,0,0,0-6-1.14,14.48,14.48,0,0,0-6.12,1.27,13.94,13.94,0,0,0-4.79,3.65,16.94,16.94,0,0,0-3.13,5.81,25.45,25.45,0,0,0-1.1,7.75q0,8.88,4,13.77t12.1,4.88a13.17,13.17,0,0,0,3.43-.44,7,7,0,0,0,2.73-1.32V498.4H780V487.84h21v26.4a25.82,25.82,0,0,1-8.1,4.93,29.55,29.55,0,0,1-11.09,2,30.76,30.76,0,0,1-10.86-1.89,25.06,25.06,0,0,1-8.85-5.59,25.84,25.84,0,0,1-5.94-9.2A34.58,34.58,0,0,1,754,491.8Z" transform="translate(-35.47 -413.3)"/><path class="cls-2" d="M810.64,462.76h12.93v57.37H810.64Z" transform="translate(-35.47 -413.3)"/><path class="cls-2" d="M846.1,473.67H830.35V462.76h44.53v10.91H859.12v46.46h-13Z" transform="translate(-35.47 -413.3)"/><path class="cls-2" d="M905.06,506.49H887.55L884,520.13h-13.2l17.95-57.37h15.58l17.95,57.37H908.58Zm-2.64-10.12-1.32-5.28q-1.23-4.3-2.38-9.15c-.76-3.23-1.52-6.33-2.28-9.33h-.36q-1.05,4.58-2.15,9.38c-.74,3.19-1.51,6.23-2.33,9.1l-1.41,5.28Z" transform="translate(-35.47 -413.3)"/><path class="cls-2" d="M926.36,462.76h12.93v46.46H962v10.91H926.36Z" transform="translate(-35.47 -413.3)"/></svg>